<svg xmlns="http://www.w3.org/2000/svg" width="116" height="21" viewBox="0 0 116 21" fill="none"><path d="M10.3577 16.7166C7.95731 15 7.25825 13.2416 7.25825 13.2416H13.4656C13.4656 13.2416 12.7665 15 10.3661 16.7166H10.3577ZM6.35705 10.2333H14.3584C14.3584 10.2333 14.232 11.75 13.5835 13.0166H7.13191C6.47496 11.7416 6.35705 10.2333 6.35705 10.2333ZM6.24756 6.68332C6.30651 6.67498 6.37389 6.66665 6.44127 6.64998C6.64341 6.84998 7.20772 7.29165 8.26895 7.29165C9.65023 7.29165 10.3493 6.63332 10.3493 6.63332C10.3493 6.63332 11.0484 7.29165 12.4296 7.29165C13.4993 7.29165 14.0636 6.84998 14.2573 6.64998C14.3331 6.66665 14.3921 6.65832 14.451 6.67498C14.6195 8.04998 14.3415 9.99165 14.3415 9.99165H6.35705C6.35705 9.99165 6.07911 8.04998 6.24756 6.67498V6.68332ZM8.56373 6.32498C8.47951 6.56665 8.37844 6.80832 8.23526 7.00832C7.51935 6.99165 7.02242 6.77498 6.72764 6.59165C6.79502 6.56665 6.85397 6.54998 6.90451 6.53332C7.2751 6.39998 7.62042 6.29998 8.40371 6.31665C8.46266 6.31665 8.5132 6.31665 8.57215 6.32498H8.56373ZM5.58218 5.74998C5.98646 5.27498 6.02015 5.11665 5.95277 4.90832C5.88539 4.69998 5.63272 4.36665 5.5148 4.25832C5.39689 4.14165 5.23686 4.06665 4.6894 4.23332C4.2767 4.35832 4.04929 4.19998 3.88084 3.99998C3.90611 3.99998 3.92296 3.99998 3.9398 3.99998C3.99034 3.99998 4.0156 3.99165 4.07456 4.01665C4.13352 4.04165 4.21774 4.01665 4.28512 3.96665C4.34408 3.91665 4.32724 3.94998 4.36092 3.94998C4.39461 3.94998 4.4283 3.91665 4.52937 3.90832C4.63887 3.89998 4.77363 3.78332 4.77363 3.78332C4.83258 3.79998 4.92523 3.69998 4.97576 3.64165C5.0263 3.58332 5.00945 3.66665 5.04314 3.64165C5.07683 3.62498 5.08526 3.65832 5.14421 3.66665C5.19475 3.66665 5.3632 3.60832 5.3632 3.60832C5.45584 3.63332 5.62429 3.45832 5.62429 3.45832C5.70852 3.45832 5.78432 3.36665 5.78432 3.36665C5.90224 3.40832 5.97804 3.33332 6.05384 3.25832C6.12122 3.19165 6.14649 3.16665 6.21387 3.15832C6.28125 3.14165 6.28125 3.10832 6.34863 3.04165C6.41601 2.97498 6.40758 3.02498 6.4497 3.04165C6.49181 3.04998 6.5255 2.99998 6.55077 3.04165C6.57603 3.09165 6.56761 3.11665 6.65183 3.05832C6.73606 2.99998 6.68552 3.26665 6.69395 3.34998C6.69395 3.43332 6.74448 3.49165 6.8624 3.50832C6.98031 3.52498 7.08138 3.39165 7.08138 3.39165C7.18245 3.40832 7.28352 3.36665 7.30879 3.30832C7.33405 3.24998 7.3509 3.25832 7.37617 3.29165C7.39301 3.32498 7.49408 3.30832 7.54461 3.24165C7.58673 3.16665 7.61199 3.23332 7.65411 3.27498C7.6878 3.31665 7.72991 3.30832 7.7636 3.27498C7.79729 3.24165 7.81413 3.29165 7.87309 3.26665C7.93205 3.24165 7.95732 3.26665 8.02469 3.29998C8.09207 3.33332 8.04154 3.38332 8.04996 3.42498C8.04996 3.46665 8.11734 3.49998 8.15103 3.56665C8.19314 3.63332 8.19314 3.61665 8.26052 3.64998C8.3279 3.68332 8.40371 3.74998 8.49635 3.82498C8.58058 3.89165 8.6648 3.84998 8.69849 3.79165C8.71534 3.84998 8.73218 3.94998 8.76587 3.94998C8.79956 3.94998 8.81641 3.87498 8.84167 3.82498C8.87536 3.86665 8.90905 3.85832 8.93432 3.86665C8.91748 3.89998 8.68165 4.36665 8.96801 4.79165C8.96801 4.79165 8.99328 4.77498 9.0017 4.74998C9.03539 5.02498 9.01855 5.08332 9.01855 5.08332C9.01855 5.08332 8.88379 5.24998 8.79114 5.54165C8.15103 5.26665 7.51092 5.34998 6.82028 5.57498C6.12122 5.79998 5.5906 5.76665 5.5906 5.76665L5.58218 5.74998ZM9.01012 3.91665C9.02697 4.00832 9.05223 4.10832 9.09435 4.20832C9.0775 4.23332 9.06908 4.24998 9.06066 4.27498C9.03539 4.06665 8.95117 3.93332 8.93432 3.90832C8.95959 3.91665 8.99328 3.91665 9.01012 3.90832V3.91665ZM9.14488 1.75832C9.14488 1.75832 9.14488 1.75832 9.14488 1.74998C9.23753 1.88332 9.43967 2.12498 9.75972 2.19165C9.72603 2.20832 9.70076 2.22498 9.68392 2.24998C9.50705 2.22498 9.35544 2.19165 9.31333 2.14998C9.2628 2.09165 9.23753 2.04165 9.19542 2.04998C9.1533 2.04998 9.19542 1.99165 9.16173 1.96665C9.11961 1.94165 9.05223 1.94165 9.13646 1.76665L9.14488 1.75832ZM9.80183 1.80832C9.87764 1.85832 10.0292 1.94165 10.0798 2.06665C10.0966 2.10832 10.105 2.14165 10.1135 2.17498C10.004 2.14998 9.91975 2.14998 9.86079 2.15832C9.7513 1.98332 9.62496 1.86665 9.51547 1.79165C9.63338 1.77498 9.74288 1.76665 9.81026 1.80832H9.80183ZM10.7704 5.49165C10.7704 5.49165 10.7704 5.49165 10.7873 5.49165C10.922 5.54165 11.0652 5.52498 11.0652 5.52498C11.1073 5.54998 11.301 5.73332 11.3768 5.79998C11.1831 5.90832 11.0062 6.01665 10.8378 6.15832C10.7957 5.99165 10.7367 5.71665 10.7536 5.62498C10.762 5.57498 10.7704 5.52498 10.7788 5.48332L10.7704 5.49165ZM13.9962 6.59165C13.6846 6.78332 13.1624 7.00832 12.3875 7.00832C11.7811 7.00832 11.3095 6.86665 10.981 6.71665C11.1157 6.63332 11.6548 6.33332 12.3286 6.31665C13.1119 6.29998 13.4488 6.39998 13.8278 6.53332C13.8783 6.54998 13.9373 6.56665 14.0046 6.59165H13.9962ZM11.1915 4.30832C11.2505 4.04998 11.301 3.83332 11.3516 3.86665C11.4021 3.89998 11.5032 3.90832 11.5369 3.86665C11.5706 3.82498 11.579 3.81665 11.6127 3.86665C11.6379 3.91665 11.8064 3.99165 11.9159 3.80832C12.0254 3.62498 11.9917 3.71665 12.0254 3.79165C12.0591 3.85832 12.1433 3.89165 12.2359 3.81665C12.3286 3.74165 12.4044 3.67498 12.4718 3.64165C12.5391 3.60832 12.5391 3.62498 12.5812 3.55832C12.6234 3.49165 12.6823 3.45832 12.6823 3.41665C12.6823 3.37498 12.6402 3.32498 12.7076 3.29165C12.775 3.25832 12.8002 3.23332 12.8592 3.25832C12.9181 3.28332 12.935 3.23332 12.9603 3.26665C12.9939 3.29998 13.0276 3.30832 13.0697 3.26665C13.1034 3.22498 13.1371 3.15832 13.1792 3.23332C13.2214 3.30832 13.3224 3.32498 13.3393 3.28332C13.3645 3.24998 13.373 3.24165 13.4066 3.29998C13.4319 3.35832 13.533 3.39998 13.6341 3.38332C13.6341 3.38332 13.7351 3.51665 13.853 3.49998C13.971 3.48332 14.0215 3.41665 14.0215 3.34165C14.0215 3.25832 13.9794 2.99165 14.0636 3.04998C14.1478 3.10832 14.1394 3.08332 14.1647 3.03332C14.1899 2.98332 14.2236 3.03332 14.2657 3.03332C14.3078 3.03332 14.2994 2.97498 14.3668 3.03332C14.4342 3.09998 14.4426 3.13332 14.51 3.14998C14.5774 3.16665 14.6026 3.18332 14.67 3.24998C14.7374 3.31665 14.8132 3.39998 14.9311 3.35832C14.9311 3.35832 15.0069 3.45832 15.0911 3.44998C15.0911 3.44998 15.2596 3.63332 15.3522 3.59998C15.3522 3.59998 15.5123 3.66665 15.5712 3.65832C15.6302 3.65832 15.6386 3.61665 15.6723 3.63332C15.706 3.65832 15.6891 3.56665 15.7397 3.63332C15.7902 3.69165 15.8828 3.79165 15.9418 3.77498C15.9418 3.77498 16.0766 3.89165 16.1861 3.89998C16.2956 3.91665 16.3208 3.94165 16.3545 3.94165C16.3882 3.94165 16.3714 3.90832 16.4303 3.95832C16.4893 4.00832 16.5819 4.02498 16.6409 4.00832C16.6998 3.98332 16.7251 3.98332 16.7756 3.99165C16.7925 3.99165 16.8177 3.99165 16.843 3.99165C16.6746 4.19165 16.4472 4.34998 16.0345 4.22498C15.487 4.05832 15.3185 4.13332 15.2091 4.24998C15.0911 4.36665 14.8385 4.69165 14.7711 4.89998C14.7037 5.10832 14.7374 5.26665 15.1417 5.74165C15.1417 5.74165 14.6111 5.77498 13.912 5.54998C13.2129 5.32498 12.5644 5.24998 11.9159 5.53332C11.8064 5.58332 11.6969 5.63332 11.5958 5.67498C11.52 5.59998 11.3431 5.41665 11.2758 5.33332C11.2758 5.33332 11.3179 5.11665 11.3179 4.99165C11.3179 4.84998 11.3095 4.78332 11.2589 4.71665C11.2084 4.64998 11.141 4.54998 11.2 4.29165L11.1915 4.30832ZM19.7151 6.30832L18.2243 6.86665L18.0811 7.26665L17.7442 7.48331C17.6516 6.25832 17.5926 5.77498 17.5589 5.77498H18.098L19.0918 4.56665L17.6516 5.18332L17.5252 5.59998L16.1103 6.65832C16.1439 6.91665 16.2197 7.71665 16.1692 8.49998L16.4808 8.29165C16.6156 14.125 13.9204 16.3166 13.9204 16.3166C13.2382 16.0083 13.0613 15.775 13.0613 15.775C15.5207 13.0666 15.4028 9.14998 15.4028 9.00832L15.1417 9.17498C15.1417 9.17498 15.2512 7.93332 15.1754 7.34998L14.7206 7.69165C14.7121 7.29165 14.6869 6.95832 14.6616 6.72498C14.9311 6.74165 15.2175 6.69998 15.4533 6.53332C15.6976 6.35832 15.8239 5.84165 15.866 5.61665C15.9081 5.39165 15.866 5.31665 15.7228 5.23332C15.5881 5.14998 15.3017 4.89165 15.1838 4.77498C15.1838 4.77498 15.4196 4.67498 15.9671 4.93332C16.5566 5.20832 17.0115 5.07498 17.5084 4.33332L16.902 4.42498L16.9525 4.00832C16.9525 4.00832 16.9693 4.01665 16.9862 4.02498C17.0704 4.08332 17.3568 4.18332 17.4915 4.21665C17.6263 4.24165 17.6263 4.21665 17.7105 4.27498C17.7947 4.32498 17.8706 4.34165 17.9127 4.32498C17.9127 4.32498 18.2496 4.51665 18.3843 4.32498C18.3843 4.32498 18.5191 4.39998 18.578 4.42498C18.6791 4.45832 18.8476 4.51665 18.8981 4.50832C18.9486 4.49998 19.0834 4.54998 19.1002 4.56665C19.3108 4.67498 19.4456 4.61665 19.4708 4.56665C19.5045 4.51665 19.3361 4.34998 19.2097 4.24165C19.0834 4.13332 18.9739 4.11665 18.9739 4.11665C19.016 4.09165 19.0076 4.04998 18.9234 3.94998C18.8391 3.84998 18.5696 3.72498 18.5696 3.72498C18.5696 3.64998 18.2664 3.45832 18.0811 3.31665C17.8958 3.17498 17.9716 3.18332 17.7779 2.99165C17.5842 2.79165 16.6998 2.09165 16.2534 1.78332C15.807 1.47498 14.5942 0.558315 13.5583 0.224982C12.5223 -0.108351 11.9074 -0.0333514 11.4695 0.241649C11.0315 0.508315 11.141 0.874982 11.2168 1.09165C11.2926 1.31665 11.4442 1.59165 11.5369 1.76665C11.6211 1.94165 11.5537 1.93332 11.5116 1.96665C11.4695 1.99165 11.5116 2.05832 11.4779 2.04998C11.4358 2.04998 11.4105 2.09165 11.36 2.14998C11.3347 2.17498 11.2589 2.19998 11.1579 2.22498C11.141 2.14165 11.1915 2.08332 11.1915 2.08332C11.1242 2.04165 11.0062 2.03332 11.0062 2.03332C11.0231 2.00832 11.0736 1.98332 11.0736 1.98332C10.9978 1.96665 10.8546 1.98332 10.8546 1.98332C10.8799 1.94998 10.8968 1.94165 10.8968 1.94165C10.762 1.89998 10.6441 2.00832 10.5935 2.05832C10.5346 1.94998 10.4588 1.88332 10.383 1.80832C10.2988 1.73332 10.2566 1.62498 10.1724 1.54165C10.1724 1.54165 10.2398 1.43332 10.1893 1.32498C10.1387 1.21665 10.004 1.13332 9.91975 1.11665C9.91975 1.11665 9.99555 1.08332 9.97871 0.999982C9.97028 0.916649 9.89448 0.891649 9.81026 0.916649C9.72603 0.941649 9.63338 0.941649 9.57443 0.999982C9.57443 0.999982 9.50705 0.999982 9.45651 0.999982C9.52389 0.774982 9.55758 0.474982 9.17015 0.241649C8.73218 -0.0250181 8.11734 -0.100018 7.08138 0.224982C6.04542 0.558315 4.83258 1.47498 4.38619 1.78332C3.94822 2.09998 3.05544 2.79165 2.86173 2.99165C2.66801 3.19165 2.74381 3.18332 2.55852 3.31665C2.37322 3.45832 2.07002 3.64165 2.07002 3.72498C2.07002 3.72498 1.8005 3.85832 1.71627 3.94998C1.63205 4.04998 1.62363 4.09165 1.66574 4.11665C1.66574 4.11665 1.55625 4.13332 1.42991 4.24165C1.30357 4.34165 1.14355 4.51665 1.16881 4.56665C1.2025 4.61665 1.32884 4.67498 1.5394 4.56665C1.55625 4.55832 1.69101 4.49998 1.74154 4.50832C1.79207 4.51665 1.96052 4.45832 2.06159 4.42498C2.12897 4.39998 2.25531 4.32498 2.25531 4.32498C2.39007 4.51665 2.72697 4.32498 2.72697 4.32498C2.76908 4.34165 2.84488 4.32498 2.92911 4.27498C3.01333 4.22498 3.01333 4.24165 3.14809 4.21665C3.28285 4.19165 3.56921 4.08332 3.65344 4.02498C3.66186 4.01665 3.67871 4.00832 3.68713 4.00832L3.73766 4.42498L3.13125 4.33332C3.63659 5.07498 4.08298 5.20832 4.67256 4.93332C5.22002 4.67498 5.45584 4.77498 5.45584 4.77498C5.33793 4.89165 5.05157 5.14998 4.91681 5.23332C4.78205 5.32498 4.73151 5.39998 4.77363 5.61665C4.81574 5.84165 4.94207 6.35832 5.18633 6.53332C5.42215 6.69998 5.7001 6.74165 5.97804 6.72498C5.95277 6.95832 5.9275 7.29165 5.91908 7.69165L5.46427 7.34998C5.39689 7.93332 5.49796 9.17498 5.49796 9.17498L5.23686 9.00832C5.23686 9.14998 5.11895 13.0666 7.5783 15.775C7.5783 15.775 7.40143 16 6.71921 16.3166C6.71921 16.3166 4.02403 14.125 4.15879 8.29165L4.47042 8.49998C4.41146 7.71665 4.49568 6.91665 4.52937 6.65832L3.12282 5.59998L2.99649 5.18332L1.55625 4.56665L2.5501 5.76665H3.08913C3.08913 5.76665 2.99649 6.25832 2.90384 7.48331L2.57536 7.26665L2.43218 6.86665L0.941406 6.30832L1.99421 7.47498L2.51641 7.44165C2.51641 7.44165 1.97737 12.6 3.75451 15.3833C5.22844 17.6916 7.37617 17.7167 9.33018 16.4167C9.2628 16.6416 9.02697 17.3166 8.36159 18.5416C8.36159 18.5416 8.7406 18.5416 9.15331 18.6083C9.15331 18.6083 9.06908 18.9417 9.02697 19.05C8.98485 19.1583 8.99328 19.325 9.19542 19.3333C9.39756 19.3333 9.65865 19.3666 9.65865 19.3666C9.65865 19.3666 9.62496 19.6083 9.61654 19.7416C9.61654 19.9167 9.59127 19.9916 10.2903 20.0166C11.0231 19.9833 10.9726 19.9167 10.9726 19.7416C10.9726 19.6166 10.9304 19.3666 10.9304 19.3666C10.9304 19.3666 11.1915 19.3417 11.3937 19.3333C11.5958 19.325 11.6042 19.1583 11.5621 19.05C11.52 18.95 11.4358 18.6083 11.4358 18.6083C11.8485 18.5416 12.2275 18.5416 12.2275 18.5416C11.5621 17.3166 11.3263 16.6416 11.2589 16.4167C13.2129 17.7167 15.3607 17.7 16.843 15.3833C18.6117 12.6083 18.0811 7.44165 18.0811 7.44165L18.6033 7.47498L19.6561 6.30832H19.7151Z" fill="white"></path><path d="M11.8561 9.81673C11.9993 9.81673 12.1256 9.76673 12.2351 9.6834C12.2941 9.70006 12.353 9.7084 12.412 9.7084C12.631 9.7084 12.8163 9.56673 12.9173 9.3584C13.0184 9.37506 13.111 9.3584 13.2037 9.3084C13.3974 9.2084 13.49 8.96673 13.4479 8.7334C13.4564 8.7334 13.4648 8.71673 13.4816 8.7084C13.6585 8.5584 13.6585 8.26673 13.4816 8.05006C13.4816 8.05006 13.4732 8.0334 13.4648 8.0334C13.5237 7.99173 13.5659 7.92507 13.5659 7.85007C13.5659 7.71673 13.4058 7.6084 13.2542 7.6084C13.1026 7.6084 12.9426 7.71673 12.9426 7.85007C12.9426 7.85007 12.8499 7.8834 12.791 7.9334C12.7152 7.99173 12.6983 8.0834 12.6815 8.1834C12.6562 8.19173 12.6394 8.20006 12.6141 8.21673C12.5804 8.2334 12.5467 8.2584 12.5215 8.2834C12.4794 8.27506 12.4372 8.26673 12.3951 8.26673C12.3277 8.26673 12.2688 8.2834 12.2098 8.3084C12.1003 8.2334 11.974 8.19173 11.8392 8.20007C11.4518 8.20007 11.1402 8.57506 11.1486 9.01673C11.157 9.4584 11.4771 9.81673 11.8645 9.8084L11.8561 9.81673Z" fill="white"></path><path d="M7.26653 8.71667C7.26653 8.71667 7.28338 8.73333 7.30022 8.74167C7.25811 8.98333 7.35076 9.21667 7.54447 9.31667C7.63712 9.36667 7.72977 9.375 7.83084 9.36667C7.93191 9.575 8.1172 9.70833 8.33619 9.71667C8.39514 9.71667 8.4541 9.71667 8.51306 9.69167C8.62255 9.775 8.74889 9.825 8.88365 9.825C9.27108 9.825 9.59113 9.475 9.59956 9.03333C9.59956 8.59167 9.29635 8.225 8.90891 8.21667C8.77415 8.21667 8.64782 8.25833 8.53833 8.325C8.47937 8.3 8.42041 8.29167 8.35303 8.28333C8.31092 8.28333 8.26038 8.28333 8.21827 8.3C8.18458 8.275 8.15931 8.25 8.1172 8.23333C8.09193 8.21667 8.06667 8.20833 8.03298 8.2C8.02456 8.1 8.00771 8.00833 7.93191 7.95C7.88137 7.9 7.77188 7.875 7.77188 7.86667C7.77188 7.73333 7.62028 7.625 7.46867 7.625C7.31707 7.625 7.18231 7.73333 7.18231 7.86667C7.18231 7.94167 7.216 8.00833 7.27496 8.05C7.27496 8.05 7.25811 8.05833 7.25811 8.06667C7.07282 8.28333 7.07282 8.575 7.25811 8.725L7.26653 8.71667Z" fill="white"></path><path d="M10.383 12.8496L10.7115 12.3496L10.6525 12.1163L10.9136 12.1496C10.9305 12.2579 10.9979 12.3829 11.1074 12.3996C11.2168 12.4163 11.3853 12.3996 11.3853 12.3996L11.4864 12.2829C11.36 12.1663 11.2168 12.0746 11.2168 12.0746C11.1832 11.3829 11.0568 10.9246 10.9726 10.6746C10.8884 10.4246 10.7705 10.4163 10.5515 10.4496C10.3325 10.4829 9.7345 10.8329 9.7345 10.8329L9.69238 11.1746L9.89452 11.1996C9.89452 11.1996 9.77661 11.5829 9.7345 11.7246C9.69238 11.8663 9.7345 11.8579 9.80187 11.9079C9.87768 11.9579 10.164 12.0246 10.164 12.0246L10.0798 12.3829L10.3914 12.8413L10.383 12.8496Z" fill="white"></path><path d="M10.3155 8.5252C10.1555 8.5252 10.0292 8.24186 10.0292 7.89186C10.0292 7.54186 10.1555 7.25853 10.3155 7.25853C10.4755 7.25853 10.6019 7.54186 10.6019 7.89186C10.6019 8.24186 10.4755 8.5252 10.3155 8.5252ZM9.59961 8.48353C9.71752 9.16686 10.1639 9.2252 10.3408 9.2252C10.3408 9.46686 10.2987 9.65853 10.2987 9.65853L10.5177 9.80853C10.5429 9.5252 10.5345 9.29186 10.5177 9.11686C11.0399 9.04186 11.1493 8.26686 11.1493 8.26686C10.6356 8.49186 10.5345 8.85853 10.5092 9.0252C10.4755 8.7502 10.4082 8.6002 10.3745 8.54186C10.703 8.50853 10.964 8.2252 10.964 7.89186C10.964 7.7002 10.8798 7.53353 10.7535 7.40853L10.863 7.20853L10.6356 7.2502L10.5429 7.0752L10.3745 7.20853L10.2734 7.0752L10.1639 7.23353L9.96178 7.11686L10.0207 7.3002C9.80175 7.40853 9.65014 7.63353 9.65014 7.88353C9.65014 8.20853 9.88597 8.4752 10.206 8.53353C10.3071 8.69186 10.3492 8.9002 10.3576 9.09186C10.0713 8.64186 9.62488 8.49186 9.62488 8.49186L9.59961 8.48353Z" fill="white"></path><path d="M10.8961 14.092C10.8372 13.9503 10.8372 13.8087 10.8961 13.667H10.096C10.037 13.8087 10.037 13.9503 10.096 14.092H10.8961Z" fill="white"></path><path d="M10.096 15.0752C10.037 15.2169 10.037 15.5002 10.096 15.6419H10.8961C10.8372 15.5002 10.8372 15.2169 10.8961 15.0752H10.096Z" fill="white"></path><path d="M11.0898 14.5168L11.2666 14.2335H10.0454L9.91062 14.0918H9.86009H9.40527L9.46423 14.2335H9.59057L9.71691 14.5168H11.0898Z" fill="white"></path><path d="M11.0815 15.7833H11.0309H10.8288H10.6604H10.4582H10.3235H10.1129H10.0455L9.96971 15.6416H9.7002L9.78442 15.8083L10.0034 15.9249H11.0562L11.2668 15.7999L11.3005 15.6416H11.1236L11.0815 15.7833Z" fill="white"></path><path d="M41.0405 5.30788C39.8867 4.19121 38.1853 3.59954 36.6861 3.59954C32.9044 3.59954 30.7146 6.40788 30.7399 9.78288C30.7399 12.6995 32.4917 15.5245 36.6861 15.5245C38.0674 15.5245 39.3392 15.1829 40.6278 14.1079V10.8662H36.1302V8.58288H43.0282V15.1245C41.4111 16.8829 39.4066 17.9079 36.6861 17.9079C30.7567 17.9079 28.1963 14.0079 28.1963 9.76621C28.1963 5.15788 31.1694 1.24121 36.6861 1.24121C38.8339 1.24121 40.9984 2.04121 42.6577 3.65788L41.0405 5.29954V5.30788Z" fill="white"></path><path d="M53.3541 15.5583C57.38 15.5583 59.073 12.7417 59.073 9.675C59.073 6.60833 57.3632 3.65 53.3962 3.58333C49.6482 3.58333 47.6268 6.16667 47.6268 9.675C47.6774 12.5167 49.3366 15.5583 53.3457 15.5583H53.3541ZM61.6418 9.625C61.6418 13.95 58.9803 17.9167 53.3541 17.9167C47.7279 17.9167 45.0664 13.8667 45.0664 9.65C45.0664 4.775 48.5196 1.25 53.4046 1.25C58.9382 1.275 61.6502 5.3 61.6502 9.625H61.6418Z" fill="white"></path><path d="M71.7903 17.9165H68.9941L62.0371 1.2998H65.0524L70.3838 14.7498L75.732 1.2998H78.722L71.7903 17.9165Z" fill="white"></path><path d="M80.4741 16.2418C80.4741 18.4751 77.0967 18.4751 77.0967 16.2418C77.0967 14.0085 80.4741 14.0335 80.4741 16.2418Z" fill="white"></path><path d="M107.283 15.5669C111.3 15.5669 112.985 12.7586 112.985 9.70026C112.985 6.64193 111.275 3.70026 107.333 3.62526C103.594 3.62526 101.589 6.20026 101.589 9.70026C101.631 12.5336 103.299 15.5669 107.291 15.5669H107.283ZM115.545 9.65859C115.545 13.9753 112.892 17.9253 107.283 17.9253C101.674 17.9253 99.0205 13.8836 99.0205 9.68359C99.0205 4.82526 102.457 1.30859 107.333 1.30859C112.85 1.33359 115.554 5.35026 115.554 9.65859H115.545Z" fill="white"></path><path d="M24.5829 0H22.8984V8.575H24.5829V0Z" fill="#FCD116"></path><path d="M24.5829 8.5752H22.8984V14.2919H24.5829V8.5752Z" fill="#09579F"></path><path d="M24.5829 14.2832H22.8984V19.9999H24.5829V14.2832Z" fill="#D21F3F"></path><path d="M96.8391 15.5338C95.1714 17.1671 93.0069 17.9255 90.7328 17.9255C84.8371 17.9255 82.1924 13.9088 82.1672 9.68379C82.1419 5.45879 84.9297 1.25879 90.7328 1.25879C92.9142 1.25879 95.0283 2.05879 96.6791 3.69212L94.9356 5.34212C93.7733 4.21712 92.2404 3.69212 90.7328 3.69212C86.5974 3.69212 84.7192 6.70046 84.7444 9.65879C84.7697 12.6005 86.53 15.5171 90.7328 15.5171C92.2404 15.5171 93.9165 14.9005 95.0535 13.7755L96.8391 15.5421V15.5338Z" fill="white"></path></svg>